<mxfile host="app.diagrams.net" agent="Mozilla/5.0 (Windows NT 10.0; Win64; x64) AppleWebKit/537.36 (KHTML, like Gecko) Chrome/139.0.0.0 Safari/537.36 Edg/139.0.0.0" version="28.1.1">
  <diagram name="第 1 页" id="KuTbbp_19VOGMLB8oF-r">
    <mxGraphModel dx="776" dy="1138" grid="1" gridSize="10" guides="1" tooltips="1" connect="1" arrows="1" fold="1" page="1" pageScale="1" pageWidth="5000" pageHeight="5000" math="0" shadow="0">
      <root>
        <mxCell id="0" />
        <mxCell id="1" parent="0" />
        <mxCell id="Ycm1jLgmiE4IbTSR1K4s-9" style="edgeStyle=orthogonalEdgeStyle;rounded=0;orthogonalLoop=1;jettySize=auto;html=1;entryX=0.5;entryY=0;entryDx=0;entryDy=0;fontSize=16;" edge="1" parent="1" source="Ycm1jLgmiE4IbTSR1K4s-1" target="Ycm1jLgmiE4IbTSR1K4s-2">
          <mxGeometry relative="1" as="geometry" />
        </mxCell>
        <mxCell id="Ycm1jLgmiE4IbTSR1K4s-1" value="开始" style="rounded=1;whiteSpace=wrap;html=1;fontSize=16;" vertex="1" parent="1">
          <mxGeometry x="80" y="40" width="120" height="40" as="geometry" />
        </mxCell>
        <mxCell id="Ycm1jLgmiE4IbTSR1K4s-10" style="edgeStyle=orthogonalEdgeStyle;rounded=0;orthogonalLoop=1;jettySize=auto;html=1;entryX=0.5;entryY=0;entryDx=0;entryDy=0;fontSize=16;" edge="1" parent="1" source="Ycm1jLgmiE4IbTSR1K4s-2" target="Ycm1jLgmiE4IbTSR1K4s-3">
          <mxGeometry relative="1" as="geometry" />
        </mxCell>
        <mxCell id="Ycm1jLgmiE4IbTSR1K4s-2" value="接收任务清单" style="rounded=0;whiteSpace=wrap;html=1;fontSize=16;" vertex="1" parent="1">
          <mxGeometry x="80" y="120" width="120" height="40" as="geometry" />
        </mxCell>
        <mxCell id="Ycm1jLgmiE4IbTSR1K4s-11" style="edgeStyle=orthogonalEdgeStyle;rounded=0;orthogonalLoop=1;jettySize=auto;html=1;entryX=0.5;entryY=0;entryDx=0;entryDy=0;fontSize=16;" edge="1" parent="1" source="Ycm1jLgmiE4IbTSR1K4s-3" target="Ycm1jLgmiE4IbTSR1K4s-4">
          <mxGeometry relative="1" as="geometry" />
        </mxCell>
        <mxCell id="Ycm1jLgmiE4IbTSR1K4s-3" value="智能转换模型" style="rounded=0;whiteSpace=wrap;html=1;fontSize=16;" vertex="1" parent="1">
          <mxGeometry x="80" y="200" width="120" height="40" as="geometry" />
        </mxCell>
        <mxCell id="Ycm1jLgmiE4IbTSR1K4s-12" style="edgeStyle=orthogonalEdgeStyle;rounded=0;orthogonalLoop=1;jettySize=auto;html=1;entryX=0.5;entryY=0;entryDx=0;entryDy=0;fontSize=16;" edge="1" parent="1" source="Ycm1jLgmiE4IbTSR1K4s-4" target="Ycm1jLgmiE4IbTSR1K4s-5">
          <mxGeometry relative="1" as="geometry">
            <Array as="points">
              <mxPoint x="140" y="340" />
              <mxPoint x="240" y="340" />
              <mxPoint x="240" y="20" />
              <mxPoint x="340" y="20" />
            </Array>
          </mxGeometry>
        </mxCell>
        <mxCell id="Ycm1jLgmiE4IbTSR1K4s-4" value="生成目标仿真平台想定脚本" style="rounded=0;whiteSpace=wrap;html=1;fontSize=16;" vertex="1" parent="1">
          <mxGeometry x="80" y="280" width="120" height="40" as="geometry" />
        </mxCell>
        <mxCell id="Ycm1jLgmiE4IbTSR1K4s-13" style="edgeStyle=orthogonalEdgeStyle;rounded=0;orthogonalLoop=1;jettySize=auto;html=1;entryX=0.5;entryY=0;entryDx=0;entryDy=0;fontSize=16;" edge="1" parent="1" source="Ycm1jLgmiE4IbTSR1K4s-5" target="Ycm1jLgmiE4IbTSR1K4s-6">
          <mxGeometry relative="1" as="geometry" />
        </mxCell>
        <mxCell id="Ycm1jLgmiE4IbTSR1K4s-5" value="部署脚本到对应平台" style="rounded=0;whiteSpace=wrap;html=1;fontSize=16;" vertex="1" parent="1">
          <mxGeometry x="280" y="40" width="120" height="40" as="geometry" />
        </mxCell>
        <mxCell id="Ycm1jLgmiE4IbTSR1K4s-14" style="edgeStyle=orthogonalEdgeStyle;rounded=0;orthogonalLoop=1;jettySize=auto;html=1;entryX=0.5;entryY=0;entryDx=0;entryDy=0;fontSize=16;" edge="1" parent="1" source="Ycm1jLgmiE4IbTSR1K4s-6" target="Ycm1jLgmiE4IbTSR1K4s-7">
          <mxGeometry relative="1" as="geometry" />
        </mxCell>
        <mxCell id="Ycm1jLgmiE4IbTSR1K4s-6" value="仿真引擎加载并运行脚本" style="rounded=0;whiteSpace=wrap;html=1;fontSize=16;" vertex="1" parent="1">
          <mxGeometry x="280" y="120" width="120" height="40" as="geometry" />
        </mxCell>
        <mxCell id="Ycm1jLgmiE4IbTSR1K4s-15" style="edgeStyle=orthogonalEdgeStyle;rounded=0;orthogonalLoop=1;jettySize=auto;html=1;entryX=0.5;entryY=0;entryDx=0;entryDy=0;fontSize=16;" edge="1" parent="1" source="Ycm1jLgmiE4IbTSR1K4s-7" target="Ycm1jLgmiE4IbTSR1K4s-8">
          <mxGeometry relative="1" as="geometry" />
        </mxCell>
        <mxCell id="Ycm1jLgmiE4IbTSR1K4s-7" value="生成动态推演场景" style="rounded=0;whiteSpace=wrap;html=1;fontSize=16;" vertex="1" parent="1">
          <mxGeometry x="280" y="200" width="120" height="40" as="geometry" />
        </mxCell>
        <mxCell id="Ycm1jLgmiE4IbTSR1K4s-8" value="结束" style="rounded=1;whiteSpace=wrap;html=1;fontSize=16;" vertex="1" parent="1">
          <mxGeometry x="280" y="280" width="120" height="40" as="geometry" />
        </mxCell>
      </root>
    </mxGraphModel>
  </diagram>
</mxfile>
